<?xml version="1.0" encoding="utf-8"?>
<svg viewBox="0 0 128 128" xmlns="http://www.w3.org/2000/svg">
  <style type="text/css" >   
    svg{
  animation-name: back;
  animation-duration: 15s;
  animation-direction: alternate ;
  animation-iteration-count: infinite;
    }
    @keyframes back {
      from {opacity: 0.01;}
      to {opacity: 0.04;}
    }      
  </style>
  <g>      
    <path stroke="#266" class="b" stroke-width="3" fill="#155" d="M 65, 35, C 70, 30, 85, 25, 70, 10, C 80, 10, 120, 40, 120, 55, C 110, 45, 92, 40, 64, 75"/>
    <path stroke="#155" stroke-width="4" fill="none" d="M 65, 70 C 80, 80, 95, 75, 105, 65, C 105, 65, 110, 60, 105, 55, C 105, 55, 100, 50, 95, 60"/>
    <path stroke="#155" stroke-width="4" fill="none" d="M 70, 75, C 65, 75, 100, 100, 105, 85, C 105, 85, 110, 70, 95, 80"/>    
    <path stroke="#155" stroke-width="4" fill="none" d="M 60, 80, C 75, 85, 85, 100, 90, 105, C 90, 105, 95, 110, 100, 105, C 100, 105, 105, 100, 100, 97, C 100, 97, 97, 95, 95, 97"/>    
    <path stroke="#155" stroke-width="4" fill="none" d="M 65, 90, C 65, 90, 75, 95, 80, 105, C 80, 105, 85, 115, 75, 115, C 75, 115, 65, 115, 70, 105"/>
  </g>

  <g transform="matrix(-1 0 0 1 128 0)">      
    <path stroke="#266" class="b" stroke-width="3" fill="#155" d="M 65, 35, C 70, 30, 85, 25, 70, 10, C 80, 10, 120, 40, 120, 55, C 110, 45, 92, 40, 64, 75"/>
    <path stroke="#155" stroke-width="4" fill="none" d="M 65, 70 C 80, 80, 95, 75, 105, 65, C 105, 65, 110, 60, 105, 55, C 105, 55, 100, 50, 95, 60"/>
    <path stroke="#155" stroke-width="4" fill="none" d="M 70, 75, C 65, 75, 100, 100, 105, 85, C 105, 85, 110, 70, 95, 80"/>    
    <path stroke="#155" stroke-width="4" fill="none" d="M 60, 80, C 75, 85, 85, 100, 90, 105, C 90, 105, 95, 110, 100, 105, C 100, 105, 105, 100, 100, 97, C 100, 97, 97, 95, 95, 97"/>    
    <path stroke="#155" stroke-width="4" fill="none" d="M 65, 90, C 65, 90, 75, 95, 80, 105, C 80, 105, 85, 115, 75, 115, C 75, 115, 65, 115, 70, 105"/>
  </g>

  <path fill="#266" class="b" d="M 39, 56, C 39, 56, 39, 36, 54, 31, C 54, 31, 64, 26, 74, 31, C 74, 31, 89, 36, 89, 56, C 89, 56, 89, 71, 69, 91, C 69, 91, 64, 96, 59, 91, C 59, 91, 39, 71, 39, 56, Z"/>
  <path fill="#fff" d="M 49, 51, C 49, 51, 54, 66, 59, 56, L 49, 51, Z"/>
  <path fill="#fff" d="M 69, 56, C 69, 56, 74, 66, 79, 51, L 69, 56, Z"/>
</svg>