<svg xmlns="http://www.w3.org/2000/svg" viewBox="0 0 1440 320" preserveAspectRatio="none">
    <path fill="#266" fill-opacity="1" d="M0,160L30,186.7C60,213,120,267,180,277.3C240,288,300,256,360,234.7C420,213,480,203,540,213.3C600,224,660,256,720,240C780,224,840,160,900,160C960,160,1020,224,1080,245.3C1140,267,1200,245,1260,208C1320,171,1380,117,1410,90.7L1440,64L1440,320L1410,320C1380,320,1320,320,1260,320C1200,320,1140,320,1080,320C1020,320,960,320,900,320C840,320,780,320,720,320C660,320,600,320,540,320C480,320,420,320,360,320C300,320,240,320,180,320C120,320,60,320,30,320L0,320Z"></path>
</svg>