<svg xmlns="http://www.w3.org/2000/svg" viewBox="0 0 127 13" preserveAspectRatio="none">        
    <path fill="#000" d="M0,0.8
    C6,0.8,12,9.8,18,10.8
    C24,11.8,30,7.8,36,5.8
    C42,3.8,48,2.8,54,3.8
    C60,4.8,66,6.8,72,5.8
    C78,5.8,84,0.8,90,0.8
    C96,0.8,102,4.8,108,6.8
    C114,8.8,120,0.8,126,0.8
    L126,14.8L0,14.8Z"></path>
    <path fill="#266" d="M0,1
    C6,1,12,10,18,11
    C24,12,30,8,36,6
    C42,4,48,3,54,4
    C60,5,66,7,72,6
    C78,6,84,1,90,1
    C96,1,102,5,108,7
    C114,9,120,1,126,1
    L126,1L126,13L0,13Z"></path>
</svg>